<?xml version="1.0" encoding="utf-8"?>
<!-- Generator: Adobe Illustrator 23.0.6, SVG Export Plug-In . SVG Version: 6.00 Build 0)  -->
<svg version="1.1" id="Layer_2" xmlns="http://www.w3.org/2000/svg" xmlns:xlink="http://www.w3.org/1999/xlink" x="0px" y="0px"
	 viewBox="0 0 1417.3199463 448.209198" style="enable-background:new 0 0 1417.3199463 448.209198;" xml:space="preserve">
<style type="text/css">
	.st0{fill:#4176B7;}
	.st1{fill-rule:evenodd;clip-rule:evenodd;fill:#4176B7;}
</style>
<g>
	<path class="st0" d="M276.782959,165.7048492c-16.5167847,3.8863068-30.1186676,14.5732422-36.9196777,29.147171
		c-7.7725067,13.6013336-8.7440796,30.1184082-5.829361,44.6916504
		c1.9431458,14.5732422,10.6872253,27.2040405,21.3744507,35.9478455
		c14.5732574,11.6588745,34.9766083,14.5739441,51.4929962,8.7445068
		c11.6588745-3.8862915,21.3746033-12.6307983,28.1752625-23.317749
		c8.7445068-13.6020203,10.6876526-30.1184082,8.7445068-46.6354828
		c-2.9150696-17.4876251-13.6020203-33.0327911-28.1759338-41.7772827
		C303.9869995,165.7048492,289.4130859,163.7617035,276.782959,165.7048492z M272.8966675,133.6432953
		c19.4314575-3.8862762,38.8622131-0.9719086,56.3505249,8.7438202
		c14.5739441,7.772583,26.2321167,20.4026794,34.0046997,34.0046997
		c12.6307678,21.374588,15.545166,47.6067047,10.6876526,71.8963623
		c-3.8862915,21.3739014-17.4883118,40.8053589-34.0046997,54.4073792
		c-30.1190796,24.289093-77.7255249,22.3460083-106.8724976-2.9143982
		c-15.5450287-13.6019897-26.232254-31.0903015-31.0901184-50.521759
		c-5.829361-24.2889709-2.9147186-49.5498505,9.7156525-70.9244537
		C224.3182678,155.0172119,247.6358643,138.500824,272.8966675,133.6432953"/>
	<path class="st0" d="M547.8499756,134.6145325c10.6869507,0,21.3739014,0,31.0896606,0
		c0.9719238,16.5163879,0,33.0334625,0,48.5786285c6.8013306,0,12.6307983,0,19.4314575,0c0,9.7157135,0,18.4595337,0,28.1752472
		c-6.8006592,0-12.630127,0-19.4314575,0c0,34.9766235,0,69.9525452,0,103.9575195c-10.6869507,0-21.3739014,0-32.0615845,0
		c0-34.9761963,0-68.980896,0-103.9575195c-5.8294067,0-10.6869507,0-16.5163574,0c0-9.7157135,0-18.4595337,0-28.1752472
		c5.8294067,0,10.6869507,0,16.5163574,0C547.8499756,166.6760712,546.8780518,150.1596985,547.8499756,134.6145325z"/>
	<path class="st0" d="M1167.7056885,134.6145325c10.6923828,0,21.3780518,0,32.0635986,0c0,16.5163879,0,32.0615387,0,48.5786285
		c5.8328857,0,12.6322021,0,18.4581299,0c0,9.7157135,0,18.4595337,0,28.1752472c-6.7991943,0-12.6252441,0-19.4313965,0
		c0,34.9766235,0,68.9813232,0,103.9575195c-10.6855469,0-21.3710938,0-32.0567627,0c0-34.9761963,0-68.980896,0-103.9575195
		c-5.8328857,0-10.6923828,0-16.5184326,0c0-9.7157135,0-18.4595337,0-28.1752472c4.8594971,0,10.6855469,0,15.545166,0
		C1168.6789551,166.6760712,1167.7056885,150.1596985,1167.7056885,134.6145325z"/>
	<path class="st1" d="M685.8118896,215.5268097c18.157959,0,32.8998413,14.7418671,32.8998413,32.8998108
		s-14.7418823,32.8997955-32.8998413,32.8997955s-32.8997803-14.7418518-32.8997803-32.8997955
		S667.6539307,215.5268097,685.8118896,215.5268097z M701.3570557,337.671875h-31.090271v-23.8859253
		c-6.2873535-1.4920349-12.2339478-3.8689575-17.7001343-6.9919128l-2.7025757,2.7024536
		c-4.8575439,4.8578491-8.7437744,9.7156372-13.6019897,13.6019287
		c-7.772644-7.7724915-14.5733032-14.5735168-22.3458252-22.3460083l15.6355591-15.6356506
		c-3.4811401-5.3242798-6.2269287-11.1715393-8.0933228-17.3978271h-22.1155396c0-10.6869507,0-21.3739014,0-31.0896301h20.3334961
		c1.3187256-7.4312439,3.8609009-14.4409637,7.4107056-20.814621c-5.4017944-5.270813-15.2271729-14.3347168-15.2271729-14.3347168
		c7.772583-7.7725677,16.6294556-17.3155823,24.4020996-25.08815c4.8582153,4.8581848,9.7156982,9.7157135,13.6019897,13.6020203
		c0.3331299,0.3330994,0.6655273,0.6943207,1.003479,1.0692291c5.8513184-3.5744171,12.2907715-6.279068,19.1380615-7.9329681
		c-0.2871704-6.9089661-0.710083-16.134613-0.710083-20.3403015c10.6869507,0,21.3745728,0,32.0615234,0v20.2772369
		c7.1680908,1.7011871,13.8933105,4.5525055,19.9688721,8.3476563c0.1445923-0.1542206,0.2892456-0.3043213,0.4338379-0.4489441
		c4.8581543-4.8582153,8.7445068-8.7444916,13.6019897-13.6020203c7.772583,7.772583,14.5739136,14.5732422,22.3465576,22.3458252
		l-14.2463379,14.2456055c3.7855225,6.3126678,6.5634766,13.2970123,8.111145,20.7310028h20.708374v32.061554h-21.8323975
		c-1.8670654,6.5902405-4.7149658,12.7692261-8.3771362,18.3690491l15.6363525,15.6356506
		c-7.772644,7.7724915-14.5739746,14.5735168-22.3465576,22.3460083l-16.303894-16.3043823
		c-5.4668579,3.1228943-11.4134521,5.4998779-17.7008057,6.9919128V337.671875z"/>
	<path class="st0" d="M446.8071289,181.25c15.5444641-1.9431305,32.061554-0.9719086,46.6347961,5.8294373
		c10.6876221,4.8575287,19.431488,12.6301117,25.2608948,22.3458405
		c-8.7445068,4.8575134-17.4883118,9.7157288-26.2321167,14.5732422c-2.9150696-1.9431458-5.8294373-4.8575134-8.7445068-6.8006744
		c-9.7157288-6.8013458-21.3746033-7.7725677-33.0327759-5.8294373
		c-12.6307678,1.9431458-23.317749,11.6588745-28.1759644,23.317749c-2.9143677,8.7438049-3.886261,18.4595337-0.9712219,27.2033386
		c2.9143982,11.6588745,12.6300964,22.3465271,24.2889709,25.2608948c15.545166,3.8862915,34.9766235,0,45.6635742-13.6020203
		c8.7445068,5.8294373,16.5163879,11.6588745,25.2608643,17.4883118
		c-10.6869507,14.5735779-26.2320862,24.2892456-43.7203979,26.2323303c-19.4314575,2.9147034-40.8060303,0-57.3224487-11.6587524
		c-14.5732422-10.6872864-25.2608643-28.1755981-27.20401-45.6639099
		c-2.9143677-17.4876251,0.9718933-35.9478302,11.6588745-50.5210724
		C410.8586121,193.8801117,428.3468933,184.1643829,446.8071289,181.25z"/>
	<path class="st0" d="M837.3765869,210.3964996c-12.6308594,2.9150543-22.3465576,13.6020203-25.2609253,26.2328033
		c-3.8862915,15.5444794,0,34.0046997,12.6300659,44.6916504c7.772644,6.8013611,19.4315186,8.7445068,29.1472168,5.8294373
		c11.6588745-2.9143677,20.4026489-13.6020203,23.317688-25.2608948
		c3.8829346-15.5444641,0.9712524-34.0046997-11.6588135-44.6916504
		C858.7511597,210.3964996,847.0922852,208.4533539,837.3765869,210.3964996z M812.1156616,197.7664032
		c10.6869507-11.6588745,26.2321167-18.4595337,41.7772827-17.4883118c16.5163574,0,32.0601196,8.7444916,41.7792969,21.3746033
		c13.5986328,16.5163879,17.4848633,39.8341217,14.5718994,61.208725
		c-2.9130249,19.4314575-14.5718994,37.8909912-31.090332,48.5782166
		c-11.6588745,7.7724915-26.2321167,9.7156372-39.8341064,6.8009338
		c-10.6876831-1.9430847-19.4314575-8.7440796-27.2040405-15.5450134c0,20.4028625,0,41.7773438,0,62.1802063h-32.0615234
		c0-60.2370605,0-120.473877,0-180.71138c10.6868896,0,21.3745728,0,32.0615234,0
		C812.1156616,188.0506744,812.1156616,192.9088745,812.1156616,197.7664032"/>
	<path class="st0" d="M983.1104126,210.3964996c-11.6589355,2.9150543-20.4047852,11.6588745-23.3178101,22.3465118
		c-5.8259888,16.5163879-1.9397583,37.8909912,12.6321411,48.5779419c7.772644,6.8013611,19.4315186,7.772583,29.1437378,4.8582153
		c9.7192383-2.9150696,17.4917603-11.6588745,21.3781128-21.3746033
		c5.8259888-16.5163879,3.8861694-36.9197693-10.6856689-48.5786285
		C1004.4883423,210.3964996,992.8294678,208.4533539,983.1104126,210.3964996z M944.2474365,196.795166
		c12.6322021-12.6307831,31.090332-19.4314423,48.5820313-16.5170746
		c11.6588745,1.943161,22.3444824,8.7444916,31.090332,16.5170746c0-4.8582001,0-9.7157288,0-14.5739136
		c10.6856689,0,21.3712158,0,32.0567627,0c0,43.7204132,0,88.4127502,0,132.1330872c-10.6855469,0-21.3710938,0-32.0567627,0
		c0-4.8578491,0-8.7440796,0-13.6019287c-8.7458496,7.7724915-18.4649658,14.5735168-30.1238403,16.5166016
		c-16.5115967,2.9147034-33.0300903-2.9146729-45.6622314-13.6018982
		c-13.5985107-11.6585083-22.3444214-30.1187439-23.317749-47.6070557
		C923.8427124,234.6861572,928.7023315,212.3396454,944.2474365,196.795166"/>
	<path class="st0" d="M1119.1304932,181.25c6.7993164-2.9150543,15.545166-1.9431305,22.3444824,0.9712524
		c-2.9130859,9.7157135-6.7993164,19.4314423-9.7122803,29.1471558c-4.8596191-1.9431305-9.7192383-4.8582001-14.5718994-0.9719086
		c-5.8328857,3.8862915-8.7458496,11.6588745-9.7191162,18.4602203
		c-1.9396973,11.6588745-1.9396973,22.3458252-1.9396973,34.0046997c0,17.4883118,0,34.976593,0,52.4645081
		c-10.6925049,0-21.3780518,0-32.0637207,0c0-43.7207031,0-88.4123535,0-132.1327667c9.7124023,0,18.458252,0,28.1773682,0
		c0,5.829422,0,10.6869507,0,16.5163879C1105.5319824,191.9369659,1111.3579102,184.1643829,1119.1304932,181.25z"/>
</g>
</svg>
