<svg xmlns="http://www.w3.org/2000/svg" xmlns:xlink="http://www.w3.org/1999/xlink" viewBox="0 0 113 62"><defs><style>.a{fill:none;}.b{clip-path:url(#a);}.c,.d,.e,.f,.g,.h{fill-rule:evenodd;}.c{fill:url(#b);}.d{fill:url(#c);}.e{fill:url(#d);}.f{fill:url(#e);}.g{fill:url(#f);}.h{fill:url(#g);}.i{fill:#2d2d2d;}</style><clipPath id="a"><rect class="a" width="113" height="62"/></clipPath><linearGradient id="b" x1="321.53" y1="-1316.99" x2="310.18" y2="-1319.58" gradientTransform="matrix(1, 0, 0, -1, -271, -1273.87)" gradientUnits="userSpaceOnUse"><stop offset="0" stop-color="#003e70"/><stop offset="1" stop-color="#117bbe"/></linearGradient><linearGradient id="c" x1="272.96" y1="-1309.2" x2="282.42" y2="-1315.66" xlink:href="#b"/><linearGradient id="d" x1="294.4" y1="-1280.93" x2="308.75" y2="-1283.94" gradientTransform="matrix(1, 0, 0, -1, -271, -1273.87)" gradientUnits="userSpaceOnUse"><stop offset="0" stop-color="#117bbe"/><stop offset="1" stop-color="#003d70"/></linearGradient><linearGradient id="e" x1="294.23" y1="-1296.35" x2="273.02" y2="-1288.06" gradientTransform="matrix(1, 0, 0, -1, -271, -1273.87)" gradientUnits="userSpaceOnUse"><stop offset="0" stop-color="#00c0dd"/><stop offset="1" stop-color="#2460b0"/></linearGradient><linearGradient id="f" x1="296.77" y1="-1317.33" x2="291.2" y2="-1330.43" gradientTransform="matrix(1, 0, 0, -1, -271, -1273.87)" gradientUnits="userSpaceOnUse"><stop offset="0" stop-color="#00c0dd"/><stop offset="1" stop-color="#0954a7"/></linearGradient><linearGradient id="g" x1="325.38" y1="-1292.38" x2="307.9" y2="-1304.7" gradientTransform="matrix(1, 0, 0, -1, -271, -1273.87)" gradientUnits="userSpaceOnUse"><stop offset="0" stop-color="#2460b0"/><stop offset="1" stop-color="#00c0dd"/></linearGradient></defs><g class="b"><path class="c" d="M44.55,52.47l9-5.17a1.86,1.86,0,0,0,1-1.63c0-3-.06-11.43-.06-11.43l-20.92,12Z"/><path class="d" d="M0,35.23V45.6a1.87,1.87,0,0,0,1,1.63c2.65,1.53,10,5.67,10,5.67V28.84Z"/><path class="e" d="M37.27,5.35l-9-5.1a1.93,1.93,0,0,0-1.89,0L16.47,6l20.9,11.89Z"/><path class="f" d="M27.38,12.22v4.89a4.36,4.36,0,0,1-2.18,3.78L2,34.32a3.8,3.8,0,0,0-2,3.17V16.9a2.52,2.52,0,0,1,1.26-2.18L26.44.25A1.84,1.84,0,0,1,27.38,0V12.22Z"/><path class="g" d="M15.1,37.91a4.39,4.39,0,0,1,4.38,0L42.72,51.2a3.79,3.79,0,0,0,2,.58,3.87,3.87,0,0,0,2-.54h0L28.6,61.66a2.54,2.54,0,0,1-2.53,0L.9,47.18a2,2,0,0,1-.67-.68L2.88,45l2.84-1.64Z"/><path class="h" d="M54.49,44v1.67a1.89,1.89,0,0,1-.25.94L43.61,40.46,39.26,38a4.39,4.39,0,0,1-2.18-3.76L37,7.46V7.4a3.77,3.77,0,0,0-1.92-3.29h0L53.24,14.58a2.49,2.49,0,0,1,1.26,2.17Z"/><path class="i" d="M69,18h.92l4,8.93H72.83l-1-2.34H67l-1,2.34H65Zm2.44,5.69-2-4.53-2,4.53Z"/><path class="i" d="M75.68,18.06h1V26H81.6v.93H75.68Z"/><path class="i" d="M84.55,19h-3v-.93h6.88V19H85.55v7.94h-1Z"/><path class="i" d="M90.49,18.06h1v8.87h-1Z"/><path class="i" d="M94,23.22V18.06h1v5.09c0,1.92,1,3,2.68,3s2.63-1,2.63-2.92V18.06h1v5.08c0,2.58-1.46,3.93-3.65,3.93S94,25.72,94,23.22Z"/><path class="i" d="M103.66,18.06h1l3.18,4.84L111,18.06h1v8.87h-1V19.75l-3.19,4.75h-.05l-3.2-4.74v7.17h-1Z"/><path class="i" d="M70.9,45c3.25,0,5.25-2,5.25-4.77v0c0-2.71-1.94-3.76-3.92-4.09l3.7-3.52V30.16H66.06v2.75h5.73l-3.48,3.5.5,2.05h1.34c1.79,0,2.85.66,2.85,1.85v0a1.82,1.82,0,0,1-2.06,1.77,4.47,4.47,0,0,1-3.53-1.75L65.2,42.48A7.09,7.09,0,0,0,70.9,45Z"/><path class="i" d="M84.33,45c3.18,0,5.57-2.06,5.57-5v-.05c0-3-2.23-4.64-5.13-4.64a5,5,0,0,0-3,.94c.21-1.92,1.12-3.38,2.94-3.38a4.5,4.5,0,0,1,3,1.17l1.69-2.48a6.71,6.71,0,0,0-4.57-1.61c-4.36,0-6.4,3.46-6.4,8v0c0,2.9.67,4.46,1.73,5.53A5.55,5.55,0,0,0,84.33,45Zm-.12-2.75a2.26,2.26,0,0,1-2.55-2.17v0c0-1.23.92-2.11,2.51-2.11s2.54.9,2.54,2.13v0C86.71,41.35,85.79,42.25,84.21,42.25Z"/><path class="i" d="M97.33,45c3.36,0,5.55-2,5.55-5v-.05c0-3.29-2.27-4.66-5.11-4.66a7,7,0,0,0-1.92.25L96,33h6.22V30.16h-9l-.42,7.19,1.86,1.23A6.26,6.26,0,0,1,97.15,38c1.52,0,2.58.73,2.58,2v0c0,1.29-.94,2-2.44,2a5.1,5.1,0,0,1-3.48-1.58l-1.94,2.31A7.49,7.49,0,0,0,97.33,45Z"/></g></svg>