<?xml version="1.0" encoding="utf-8"?>
<!-- Generator: Adobe Illustrator 24.1.1, SVG Export Plug-In . SVG Version: 6.00 Build 0)  -->
<svg version="1.1" id="Layer_1" xmlns="http://www.w3.org/2000/svg" xmlns:xlink="http://www.w3.org/1999/xlink" x="0px" y="0px"
	 viewBox="0 0 113 62" style="enable-background:new 0 0 113 62;" xml:space="preserve">
<style type="text/css">
	.st0{clip-path:url(#SVGID_2_);}
	.st1{fill-rule:evenodd;clip-rule:evenodd;fill:url(#SVGID_3_);}
	.st2{fill-rule:evenodd;clip-rule:evenodd;fill:url(#SVGID_4_);}
	.st3{fill-rule:evenodd;clip-rule:evenodd;fill:url(#SVGID_5_);}
	.st4{fill-rule:evenodd;clip-rule:evenodd;fill:url(#SVGID_6_);}
	.st5{fill-rule:evenodd;clip-rule:evenodd;fill:url(#SVGID_7_);}
	.st6{fill-rule:evenodd;clip-rule:evenodd;fill:url(#SVGID_8_);}
	.st7{fill:#FFFFFF;}
</style>
<g>
	<defs>
		<rect id="SVGID_1_" width="113" height="62"/>
	</defs>
	<clipPath id="SVGID_2_">
		<use xlink:href="#SVGID_1_"  style="overflow:visible;"/>
	</clipPath>
	<g class="st0">
		
			<linearGradient id="SVGID_3_" gradientUnits="userSpaceOnUse" x1="321.531" y1="1282.9943" x2="310.181" y2="1285.5842" gradientTransform="matrix(1 0 0 1 -271 -1239.87)">
			<stop  offset="0" style="stop-color:#003E70"/>
			<stop  offset="1" style="stop-color:#117BBE"/>
		</linearGradient>
		<path class="st1" d="M44.55,52.47l9-5.17c0.61-0.32,0.99-0.94,1-1.63c0-3-0.06-11.43-0.06-11.43l-20.92,12L44.55,52.47z"/>
		
			<linearGradient id="SVGID_4_" gradientUnits="userSpaceOnUse" x1="272.9815" y1="1275.1685" x2="282.4416" y2="1281.6285" gradientTransform="matrix(1 0 0 1 -271 -1239.87)">
			<stop  offset="0" style="stop-color:#003E70"/>
			<stop  offset="1" style="stop-color:#117BBE"/>
		</linearGradient>
		<path class="st2" d="M0,35.23V45.6c0.01,0.69,0.39,1.31,1,1.63c2.65,1.53,10,5.67,10,5.67V28.84L0,35.23z"/>
		
			<linearGradient id="SVGID_5_" gradientUnits="userSpaceOnUse" x1="294.4023" y1="1246.9192" x2="308.7523" y2="1249.9291" gradientTransform="matrix(1 0 0 1 -271 -1239.87)">
			<stop  offset="0" style="stop-color:#117BBE"/>
			<stop  offset="1" style="stop-color:#003D70"/>
		</linearGradient>
		<path class="st3" d="M37.27,5.35l-9-5.1c-0.59-0.33-1.3-0.33-1.89,0L16.47,6l20.9,11.89L37.27,5.35z"/>
		
			<linearGradient id="SVGID_6_" gradientUnits="userSpaceOnUse" x1="294.2321" y1="1262.3445" x2="273.0221" y2="1254.0546" gradientTransform="matrix(1 0 0 1 -271 -1239.87)">
			<stop  offset="0" style="stop-color:#00C0DD"/>
			<stop  offset="1" style="stop-color:#2460B0"/>
		</linearGradient>
		<path class="st4" d="M27.38,12.22v4.89c0,1.56-0.83,3-2.18,3.78L2,34.32c-1.18,0.63-1.94,1.84-2,3.17V16.9
			c0-0.9,0.48-1.73,1.26-2.18L26.44,0.25C26.73,0.08,27.05,0,27.38,0V12.22z"/>
		
			<linearGradient id="SVGID_7_" gradientUnits="userSpaceOnUse" x1="296.7745" y1="1283.3319" x2="291.2045" y2="1296.432" gradientTransform="matrix(1 0 0 1 -271 -1239.87)">
			<stop  offset="0" style="stop-color:#00C0DD"/>
			<stop  offset="1" style="stop-color:#0954A7"/>
		</linearGradient>
		<path class="st5" d="M15.1,37.91c1.36-0.78,3.02-0.78,4.38,0L42.72,51.2c0.6,0.38,1.29,0.58,2,0.58c0.7,0.01,1.39-0.18,2-0.54l0,0
			L28.6,61.66c-0.78,0.45-1.75,0.45-2.53,0L0.9,47.18c-0.27-0.17-0.5-0.4-0.67-0.68L2.88,45l2.84-1.64L15.1,37.91z"/>
		
			<linearGradient id="SVGID_8_" gradientUnits="userSpaceOnUse" x1="325.3797" y1="1258.3795" x2="307.8997" y2="1270.6995" gradientTransform="matrix(1 0 0 1 -271 -1239.87)">
			<stop  offset="0" style="stop-color:#2460B0"/>
			<stop  offset="1" style="stop-color:#00C0DD"/>
		</linearGradient>
		<path class="st6" d="M54.49,44v1.67c0,0.33-0.09,0.65-0.25,0.94l-10.63-6.15L39.26,38c-1.34-0.78-2.17-2.21-2.18-3.76L37,7.46V7.4
			c0-1.36-0.73-2.62-1.92-3.29l0,0l18.16,10.47c0.78,0.44,1.26,1.27,1.26,2.17L54.49,44z"/>
		<path class="st7" d="M69,18h0.92l4,8.93h-1.09l-1-2.34H67l-1,2.34h-1L69,18z M71.44,23.69l-2-4.53l-2,4.53H71.44z"/>
		<path class="st7" d="M75.68,18.06h1V26h4.92v0.93h-5.92V18.06z"/>
		<path class="st7" d="M84.55,19h-3v-0.93h6.88V19h-2.88v7.94h-1V19z"/>
		<path class="st7" d="M90.49,18.06h1v8.87h-1V18.06z"/>
		<path class="st7" d="M94,23.22v-5.16h1v5.09c0,1.92,1,3,2.68,3s2.63-1,2.63-2.92v-5.17h1v5.08c0,2.58-1.46,3.93-3.65,3.93
			S94,25.72,94,23.22z"/>
		<path class="st7" d="M103.66,18.06h1l3.18,4.84l3.16-4.84h1v8.87h-1v-7.18l-3.19,4.75h-0.05l-3.2-4.74v7.17h-1L103.66,18.06z"/>
		<path class="st7" d="M70.9,45c3.25,0,5.25-2,5.25-4.77l0,0c0-2.71-1.94-3.76-3.92-4.09l3.7-3.52v-2.46h-9.87v2.75h5.73l-3.48,3.5
			l0.5,2.05h1.34c1.79,0,2.85,0.66,2.85,1.85l0,0c-0.02,1-0.85,1.8-1.85,1.79c-0.07,0-0.14-0.01-0.21-0.02
			c-1.38-0.01-2.69-0.65-3.53-1.75l-2.21,2.15C66.61,44.15,68.71,45.08,70.9,45z"/>
		<path class="st7" d="M84.33,45c3.18,0,5.57-2.06,5.57-5v-0.05c0-3-2.23-4.64-5.13-4.64c-1.08-0.02-2.13,0.31-3,0.94
			c0.21-1.92,1.12-3.38,2.94-3.38c1.11,0.01,2.18,0.42,3,1.17l1.69-2.48c-1.27-1.09-2.9-1.66-4.57-1.61c-4.36,0-6.4,3.46-6.4,8l0,0
			c0,2.9,0.67,4.46,1.73,5.53C81.28,44.54,82.79,45.1,84.33,45z M84.21,42.25c-1.24,0.16-2.37-0.71-2.53-1.95
			c-0.01-0.07-0.02-0.15-0.02-0.22l0,0c0-1.23,0.92-2.11,2.51-2.11s2.54,0.9,2.54,2.13l0,0C86.71,41.35,85.79,42.25,84.21,42.25z"/>
		<path class="st7" d="M97.33,45c3.36,0,5.55-2,5.55-5v-0.05c0-3.29-2.27-4.66-5.11-4.66c-0.65-0.01-1.29,0.08-1.92,0.25L96,33h6.22
			v-2.84h-9l-0.42,7.19l1.86,1.23c0.78-0.36,1.63-0.56,2.49-0.58c1.52,0,2.58,0.73,2.58,2l0,0c0,1.29-0.94,2-2.44,2
			c-1.32-0.06-2.57-0.62-3.48-1.58l-1.94,2.31C93.3,44.2,95.28,45.02,97.33,45z"/>
	</g>
</g>
</svg>
