<svg width="445" height="676" viewBox="0 0 445 676" fill="none" xmlns="http://www.w3.org/2000/svg">
<path fill-rule="evenodd" clip-rule="evenodd" d="M333.54 338.628C333.54 338.628 375.537 314.501 391.571 305.311C395.356 303.125 397.676 299.118 397.676 294.786C397.676 275.152 397.309 221.109 397.309 221.109L262.323 298.429L333.54 338.628Z" fill="url(#paint0_linear_2660_242)"/>
<path fill-rule="evenodd" clip-rule="evenodd" d="M46.1428 227.467V294.343C46.1428 298.674 48.4625 302.682 52.2471 304.868C69.3391 314.705 116.505 341.382 116.505 341.382V186.297L46.1428 227.467Z" fill="url(#paint1_linear_2660_242)"/>
<path fill-rule="evenodd" clip-rule="evenodd" d="M286.612 34.9371C286.612 34.9371 244.818 11.1339 228.865 2.06603C225.081 -0.0794923 220.441 -0.0794923 216.697 2.10652C199.605 11.9031 152.399 39.4306 152.399 39.4306L287.222 116.022L286.612 34.9371Z" fill="url(#paint2_linear_2660_242)"/>
<path fill-rule="evenodd" clip-rule="evenodd" d="M222.76 79.1831V110.718C222.76 120.758 217.389 129.988 208.68 135.048L58.7991 221.638C51.4739 225.646 46.4684 233.256 46.1428 242.041V109.342C46.1428 103.553 49.2357 98.2094 54.2819 95.3352C85.3324 77.4828 216.697 2.06555 216.697 2.06555C218.569 0.97255 220.685 0.446289 222.76 0.446289V79.1831Z" fill="url(#paint3_linear_2660_242)"/>
<path fill-rule="evenodd" clip-rule="evenodd" d="M143.569 244.753C152.278 239.733 163.062 239.693 171.812 244.672L321.774 330.372C325.559 332.76 330.035 334.136 334.837 334.136C339.639 334.136 343.79 332.841 347.493 330.614C347.493 330.614 258.371 381.864 230.657 397.814C225.611 400.729 219.425 400.729 214.379 397.814C184.346 380.569 51.9236 304.463 51.9236 304.463C50.0923 303.37 48.6272 301.872 47.6099 300.091L64.7019 290.214C64.7019 290.214 76.3814 283.494 83.0148 279.648L143.569 244.753Z" fill="url(#paint4_linear_2660_242)"/>
<path fill-rule="evenodd" clip-rule="evenodd" d="M397.703 283.941V294.749C397.703 296.895 397.133 299 396.075 300.781L327.503 261.19C317.737 255.563 307.929 249.896 299.464 244.997C290.756 239.978 285.425 230.748 285.384 220.789L284.936 48.4996V48.1353C284.936 39.0674 279.931 31.133 272.483 26.9634C272.483 26.9634 361.85 78.4155 389.604 94.4058C394.651 97.28 397.743 102.624 397.743 108.412L397.703 283.941Z" fill="url(#paint5_linear_2660_242)"/>
<path d="M147.688 675.934C166.261 675.934 179.833 664.935 179.833 647.772V647.53C179.833 633.147 170.19 626.379 158.284 623.72L178.166 606.436V589.635H117.925V608.611H149.831L130.664 626.137L133.997 638.344H143.76C152.451 638.344 157.332 641.608 157.332 647.047V647.288C157.332 652.486 153.165 655.87 146.617 655.87C138.998 655.87 132.688 652.365 126.735 646.201L112.21 660.946C120.306 670.011 131.616 675.934 147.688 675.934Z" fill="#252A3A"/>
<path d="M224.608 675.934C242.823 675.934 257.705 664.451 257.705 645.475V645.234C257.705 628.312 244.847 618.885 230.204 618.885C221.989 618.885 216.632 622.027 212.227 625.412C213.298 614.776 218.179 607.403 227.942 607.403C234.609 607.403 239.371 609.941 244.49 613.809L255.324 597.25C247.347 591.207 239.252 587.943 227.585 587.943C201.512 587.943 188.892 608.007 188.892 634.356V634.597C188.892 650.431 192.94 659.979 199.131 666.264C205.083 672.308 212.822 675.934 224.608 675.934ZM223.656 657.683C216.393 657.683 211.869 652.848 211.869 646.684V646.442C211.869 640.399 216.155 635.685 223.418 635.685C230.68 635.685 235.204 640.52 235.204 646.563V646.805C235.204 652.969 230.918 657.683 223.656 657.683Z" fill="#252A3A"/>
<path d="M298.911 675.934C319.15 675.934 333.317 664.693 333.317 645.838V645.596C333.317 627.225 319.745 618.764 304.744 618.764C299.149 618.764 295.22 619.973 291.41 621.786L292.125 608.974H329.626V589.635H273.909L271.528 632.543L285.219 640.278C289.148 637.861 293.434 636.048 298.553 636.048C305.816 636.048 310.816 639.795 310.816 645.838V646.08C310.816 652.123 306.173 655.991 298.553 655.991C291.529 655.991 285.1 652.606 278.314 646.805L265.099 662.517C273.79 670.736 284.148 675.934 298.911 675.934Z" fill="#252A3A"/>
<path d="M0 553.375H9.64334L19.5248 531.015H64.8842L74.6466 553.375H84.7661L46.7881 468.165H37.9781L0 553.375ZM23.2154 522.434L42.264 479.285L61.1935 522.434H23.2154Z" fill="#252A3A"/>
<path d="M101.2 553.375H157.513V544.552H110.605V468.769H101.2V553.375Z" fill="#252A3A"/>
<path d="M185.077 553.375H194.601V477.593H222.579V468.769H157.1V477.593H185.077V553.375Z" fill="#252A3A"/>
<path d="M241.084 553.375H250.49V468.769H241.084V553.375Z" fill="#252A3A"/>
<path d="M308.232 554.705C329.067 554.705 342.996 541.893 342.996 517.236V468.769H333.591V517.962C333.591 536.454 323.828 545.882 308.471 545.882C292.517 545.882 282.993 535.608 282.993 517.357V468.769H273.588V517.962C273.588 541.893 287.636 554.705 308.232 554.705Z" fill="#252A3A"/>
<path d="M365.234 553.375H374.401V484.965L404.76 530.169H405.236L435.595 484.844V553.375H445V468.769H435.476L405.117 514.94L374.758 468.769H365.234V553.375Z" fill="#252A3A"/>
<defs>
<linearGradient id="paint0_linear_2660_242" x1="372.16" y1="278.342" x2="298.942" y2="295.074" gradientUnits="userSpaceOnUse">
<stop stop-color="#003E89"/>
<stop offset="1" stop-color="#1368BC"/>
</linearGradient>
<linearGradient id="paint1_linear_2660_242" x1="58.7421" y1="228.24" x2="119.707" y2="269.964" gradientUnits="userSpaceOnUse">
<stop stop-color="#003E89"/>
<stop offset="1" stop-color="#1368BC"/>
</linearGradient>
<linearGradient id="paint2_linear_2660_242" x1="197.107" y1="46.0817" x2="289.68" y2="65.5136" gradientUnits="userSpaceOnUse">
<stop stop-color="#1368BC"/>
<stop offset="1" stop-color="#003E89"/>
</linearGradient>
<linearGradient id="paint3_linear_2660_242" x1="196.089" y1="145.115" x2="59.2949" y2="91.5693" gradientUnits="userSpaceOnUse">
<stop stop-color="#57BFFF"/>
<stop offset="1" stop-color="#0B55D9"/>
</linearGradient>
<linearGradient id="paint4_linear_2660_242" x1="212.499" y1="280.514" x2="175.847" y2="366.835" gradientUnits="userSpaceOnUse">
<stop stop-color="#5EB9FC"/>
<stop offset="1" stop-color="#0B55D9"/>
</linearGradient>
<linearGradient id="paint5_linear_2660_242" x1="397.149" y1="119.954" x2="284.447" y2="199.512" gradientUnits="userSpaceOnUse">
<stop stop-color="#0B55D9"/>
<stop offset="1" stop-color="#57BFFF"/>
</linearGradient>
</defs>
</svg>
