<svg width="600" height="600" viewBox="0 0 600 600" fill="none" xmlns="http://www.w3.org/2000/svg">
<path fill-rule="evenodd" clip-rule="evenodd" d="M406.6 326.398C406.6 326.398 443.088 305.345 457.018 297.326C460.307 295.419 462.322 291.957 462.322 288.142C462.322 271.01 462.004 223.888 462.004 223.888L344.726 291.321L406.6 326.398Z" fill="url(#paint0_linear_2397_109)"/>
<path fill-rule="evenodd" clip-rule="evenodd" d="M156.912 229.434C156.912 229.434 156.912 271.681 156.912 287.754C156.912 291.533 158.927 295.03 162.216 296.938C177.065 305.521 218.044 328.8 218.044 328.8V193.51L156.912 229.434Z" fill="url(#paint1_linear_2397_109)"/>
<path fill-rule="evenodd" clip-rule="evenodd" d="M365.834 61.5053C365.834 61.5053 329.523 40.7703 315.663 32.8225C312.375 30.9503 308.344 30.9503 305.091 32.8578C290.242 41.4061 249.228 65.4262 249.228 65.4262L366.364 132.223L365.834 61.5053Z" fill="url(#paint2_linear_2397_109)"/>
<path fill-rule="evenodd" clip-rule="evenodd" d="M310.359 100.114V127.631C310.359 136.356 305.692 144.445 298.126 148.861L167.908 224.348C161.544 227.845 157.195 234.485 156.912 242.151C156.912 242.151 156.912 153.983 156.912 126.395C156.912 121.344 159.599 116.681 163.983 114.173C190.96 98.6305 305.091 32.8225 305.091 32.8225C306.718 31.8688 308.556 31.4095 310.359 31.4095V37.2026V100.114Z" fill="url(#paint3_linear_2397_109)"/>
<path fill-rule="evenodd" clip-rule="evenodd" d="M241.556 244.517C249.122 240.137 258.491 240.102 266.093 244.482L396.382 319.192C399.67 321.276 403.559 322.477 407.731 322.477C411.762 322.477 415.51 321.346 418.727 319.404C418.727 319.404 341.296 364.088 317.219 378.006C312.834 380.514 307.46 380.514 303.076 378.006C276.983 362.993 161.933 296.585 161.933 296.585C160.342 295.631 159.069 294.324 158.185 292.77L173.035 284.186C173.035 284.186 183.182 278.322 188.945 274.966L241.556 244.517Z" fill="url(#paint4_linear_2397_109)"/>
<path fill-rule="evenodd" clip-rule="evenodd" d="M462.357 278.675V288.107C462.357 289.979 461.862 291.816 460.943 293.37L401.367 258.859C392.881 253.949 384.36 249.004 377.006 244.729C369.44 240.349 364.808 232.295 364.773 223.606L364.384 73.3388C364.384 73.2329 364.384 73.1269 364.384 73.0209C364.384 65.1084 360.035 58.185 353.565 54.5466C353.565 54.5466 431.208 99.443 455.321 113.361C459.705 115.869 462.392 120.531 462.392 125.583L462.357 278.675Z" fill="url(#paint5_linear_2397_109)"/>
<path d="M189.546 422.266H195.415L220.731 478.148H213.978L207.472 463.489H177.242L170.666 478.148H164.231L189.546 422.266ZM204.997 457.873L192.375 429.578L179.682 457.873H204.997Z" fill="white"/>
<path d="M230.843 422.655H237.101V472.355H268.356V478.148H230.843V422.655Z" fill="white"/>
<path d="M284.761 428.448H266.128V422.655H309.794V428.448H291.161V478.148H284.797V428.448H284.761Z" fill="white"/>
<path d="M321.249 422.655H327.507V478.148H321.249V422.655Z" fill="white"/>
<path d="M342.357 454.941V422.655H348.615V454.517C348.615 466.492 354.979 473.238 365.586 473.238C375.84 473.238 382.345 467.057 382.345 454.941V422.655H388.603V454.446C388.603 470.624 379.304 479.032 365.445 479.032C351.691 479.032 342.357 470.624 342.357 454.941Z" fill="white"/>
<path d="M402.604 422.655H408.969L429.193 452.927L449.417 422.655H455.781V478.148H449.523V433.181L429.299 462.924H428.98L408.721 433.287V478.148H402.604V422.655Z" fill="white"/>
<path d="M237.949 543.744L247.425 534.278C251.314 538.234 255.415 540.495 260.401 540.495C264.679 540.495 267.401 538.305 267.401 534.984V534.843C267.401 531.346 264.219 529.262 258.527 529.262H252.163L249.97 521.42L262.487 510.152H241.662V497.93H280.978V508.703L268.002 519.83C275.781 521.526 282.074 525.871 282.074 535.125V535.267C282.074 546.288 273.2 553.352 261.108 553.352C250.607 553.352 243.217 549.573 237.949 543.744Z" fill="white"/>
<path d="M294.661 547.171C290.63 543.144 287.979 536.998 287.979 526.824V526.683C287.979 509.763 296.217 496.87 313.223 496.87C320.825 496.87 326.128 498.954 331.326 502.84L324.254 513.472C320.931 510.999 317.819 509.374 313.471 509.374C307.106 509.374 303.924 514.108 303.217 520.925C306.081 518.735 309.581 516.722 314.956 516.722C324.502 516.722 332.917 522.762 332.917 533.642V533.783C332.917 545.97 323.194 553.352 311.314 553.352C303.606 553.352 298.55 551.021 294.661 547.171ZM318.208 534.666V534.525C318.208 530.639 315.238 527.531 310.501 527.531C305.763 527.531 302.97 530.569 302.97 534.454V534.596C302.97 538.552 305.94 541.66 310.677 541.66C315.415 541.66 318.208 538.622 318.208 534.666Z" fill="white"/>
<path d="M337.69 544.733L346.317 534.631C350.737 538.34 354.944 540.53 359.54 540.53C364.526 540.53 367.531 538.057 367.531 534.172V534.03C367.531 530.145 364.278 527.743 359.54 527.743C356.217 527.743 353.388 528.908 350.843 530.463L341.897 525.482L343.453 497.93H379.8V510.363H355.333L354.873 518.594C357.348 517.428 359.929 516.651 363.571 516.651C373.365 516.651 382.204 522.091 382.204 533.889V534.03C382.204 546.146 372.94 553.352 359.752 553.352C350.135 553.352 343.382 550.032 337.69 544.733Z" fill="white"/>
<defs>
<linearGradient id="paint0_linear_2397_109" x1="440.15" y1="273.814" x2="376.513" y2="288.3" gradientUnits="userSpaceOnUse">
<stop stop-color="#003E70"/>
<stop offset="1" stop-color="#117BBE"/>
</linearGradient>
<linearGradient id="paint1_linear_2397_109" x1="167.87" y1="230.095" x2="220.969" y2="266.292" gradientUnits="userSpaceOnUse">
<stop stop-color="#003E70"/>
<stop offset="1" stop-color="#117BBE"/>
</linearGradient>
<linearGradient id="paint2_linear_2397_109" x1="288.073" y1="71.209" x2="368.528" y2="88.0335" gradientUnits="userSpaceOnUse">
<stop stop-color="#117BBE"/>
<stop offset="1" stop-color="#003D70"/>
</linearGradient>
<linearGradient id="paint3_linear_2397_109" x1="287.18" y1="157.619" x2="168.211" y2="111.231" gradientUnits="userSpaceOnUse">
<stop stop-color="#00C0DD"/>
<stop offset="1" stop-color="#2460B0"/>
</linearGradient>
<linearGradient id="paint4_linear_2397_109" x1="301.432" y1="275.706" x2="270.059" y2="349.299" gradientUnits="userSpaceOnUse">
<stop stop-color="#00C0DD"/>
<stop offset="1" stop-color="#0954A7"/>
</linearGradient>
<linearGradient id="paint5_linear_2397_109" x1="461.854" y1="135.638" x2="363.684" y2="204.666" gradientUnits="userSpaceOnUse">
<stop stop-color="#2460B0"/>
<stop offset="1" stop-color="#00C0DD"/>
</linearGradient>
</defs>
</svg>
