<svg xmlns="http://www.w3.org/2000/svg" viewBox="0 0 886 277.5"><defs><style>.a{fill:#fff;}.b{fill:#1d7b3d;}.c{fill:#79b968;}.d{fill:none;}</style></defs><path class="a" d="M381.43,173.84V103.67a1.44,1.44,0,0,1,2.43-1L428.8,144a1.45,1.45,0,0,0,2.44-1V103.67a1.43,1.43,0,0,1,1.44-1.44H443a1.43,1.43,0,0,1,1.44,1.44v70.16a1.43,1.43,0,0,1-2.43,1l-44.94-41.15a1.44,1.44,0,0,0-2.44,1v39.08a1.43,1.43,0,0,1-1.43,1.43H382.87a1.43,1.43,0,0,1-1.44-1.43m0,0V103.67a1.44,1.44,0,0,1,2.43-1L428.8,144a1.45,1.45,0,0,0,2.44-1V103.67a1.43,1.43,0,0,1,1.44-1.44H443a1.43,1.43,0,0,1,1.44,1.44v70.16a1.43,1.43,0,0,1-2.43,1l-44.94-41.15a1.44,1.44,0,0,0-2.44,1v39.08a1.43,1.43,0,0,1-1.43,1.43H382.87a1.43,1.43,0,0,1-1.44-1.43M485.92,152q0,11.33,5.78,17.31t17.25,6h21.86a1.43,1.43,0,0,0,1.43-1.43v-9.05a1.43,1.43,0,0,0-1.43-1.44H509.62a10.17,10.17,0,0,1-10.5-11.06v-7.57a1.44,1.44,0,0,1,1.44-1.44H528a1.44,1.44,0,0,0,1.44-1.44v-9.05a1.45,1.45,0,0,0-1.44-1.44H500.56a1.44,1.44,0,0,1-1.44-1.44V115.59a1.45,1.45,0,0,1,1.44-1.44h29.53a1.44,1.44,0,0,0,1.44-1.44v-9a1.44,1.44,0,0,0-1.44-1.44H487.36a1.43,1.43,0,0,0-1.44,1.44V152m88.24,21.07a1.44,1.44,0,0,0,1.21,2.22h10.81a1.45,1.45,0,0,0,1.21-.65l16.43-25.38a1.45,1.45,0,0,1,2.42,0l16.38,25.38a1.44,1.44,0,0,0,1.21.65h11.11a1.44,1.44,0,0,0,1.21-2.22l-22.38-34.52a1.46,1.46,0,0,1,0-1.56l20.86-32.53a1.44,1.44,0,0,0-1.21-2.21H622.35a1.44,1.44,0,0,0-1.21.66L606.44,126a1.44,1.44,0,0,1-2.42,0l-14.95-23.11a1.42,1.42,0,0,0-1.2-.65H576.61a1.44,1.44,0,0,0-1.21,2.22l21,32.42a1.42,1.42,0,0,1,0,1.56l-22.28,34.62m92.46.17a1.43,1.43,0,0,0,1.3,2.05H678.7a1.44,1.44,0,0,0,1.31-.83l5.73-12.36a1.42,1.42,0,0,1,1.3-.83h29.59a1.45,1.45,0,0,1,1.31.84l5.63,12.34a1.42,1.42,0,0,0,1.31.84h11a1.43,1.43,0,0,0,1.3-2.05l-33.92-70.17a1.44,1.44,0,0,0-2.6,0l-34,70.17m27-23.44a1.44,1.44,0,0,1-1.31-2l8.19-17a1.44,1.44,0,0,1,2.62,0l8,17a1.44,1.44,0,0,1-1.31,2H693.65m73.75,24.06a1.43,1.43,0,0,0,1.44,1.43h10.33a1.44,1.44,0,0,0,1.44-1.43v-23a1.44,1.44,0,0,1,1.44-1.44h10.74a1.45,1.45,0,0,1,1.24.7l14.67,24.51a1.44,1.44,0,0,0,1.24.69h11.62a1.44,1.44,0,0,0,1.23-2.18l-15.54-25.56a1.42,1.42,0,0,1,.57-2,20.86,20.86,0,0,0,8.24-7.42,22.77,22.77,0,0,0,3.66-12.73,22.38,22.38,0,0,0-3.23-11.79,22.75,22.75,0,0,0-8.68-8.35,24.26,24.26,0,0,0-11.9-3H768.84a1.43,1.43,0,0,0-1.44,1.44v70.17m13.21-58.25a1.44,1.44,0,0,1,1.44-1.44H795.6a10.35,10.35,0,0,1,7.81,3.23,11.32,11.32,0,0,1,3.1,8.19,11.79,11.79,0,0,1-3.3,8.63,11.59,11.59,0,0,1-8.63,3.35H782.05a1.44,1.44,0,0,1-1.44-1.44Z"/><path class="b" d="M63.08,213.48,162.73,63.83a1.23,1.23,0,0,1,2.08,0L209.18,134a1.14,1.14,0,0,1,.09.26.67.67,0,0,1-.32.68.66.66,0,0,1-.79-.07C171.38,101.72,118,146,63.89,214.07a.5.5,0,0,1-.81-.59"/><path class="c" d="M308.4,64,208.74,213.67a1.23,1.23,0,0,1-2.08,0L162.3,143.54a.62.62,0,0,1-.09-.26.67.67,0,0,1,.32-.68.66.66,0,0,1,.79.07c36.77,33.11,90.15-11.17,144.26-79.24a.51.51,0,0,1,.69-.08.5.5,0,0,1,.13.67"/><rect class="d" width="886" height="277.5"/><path class="a" d="M829.87,103.48h-1.81v5.84h-1.55v-5.84h-1.85v-1.25h5.21Zm6.53,1-1.64,4.91H834l-1.64-4.9v4.9h-1.46v-7.11h1.81l1.7,5,1.75-5h1.75v7.11H836.4Z"/></svg>