<svg id="No_Clearspace" data-name="No Clearspace" xmlns="http://www.w3.org/2000/svg" viewBox="0 0 760 151"><defs><style>.cls-1{fill:#001440;}.cls-2{fill:#1d7b3d;}.cls-3{fill:#79b968;}</style></defs><path class="cls-1" d="M318.43,110.59V40.42a1.44,1.44,0,0,1,2.43-1L365.8,80.77a1.45,1.45,0,0,0,2.44-1V40.42A1.43,1.43,0,0,1,369.68,39H380a1.43,1.43,0,0,1,1.44,1.44v70.16a1.43,1.43,0,0,1-2.43,1L334.07,70.47a1.44,1.44,0,0,0-2.44,1v39.08A1.43,1.43,0,0,1,330.2,112H319.87a1.43,1.43,0,0,1-1.44-1.43M422.92,88.73q0,11.33,5.78,17.31T446,112h21.86a1.43,1.43,0,0,0,1.43-1.43v-9a1.43,1.43,0,0,0-1.43-1.44H446.62A10.17,10.17,0,0,1,436.12,89V81.47A1.44,1.44,0,0,1,437.56,80H465a1.44,1.44,0,0,0,1.44-1.44v-9A1.45,1.45,0,0,0,465,68.1H437.56a1.44,1.44,0,0,1-1.44-1.44V52.34a1.45,1.45,0,0,1,1.44-1.44h29.53a1.44,1.44,0,0,0,1.44-1.44v-9A1.44,1.44,0,0,0,467.09,39H424.36a1.43,1.43,0,0,0-1.44,1.44V88.73m88.24,21.07a1.44,1.44,0,0,0,1.21,2.22h10.81a1.44,1.44,0,0,0,1.21-.65L540.82,86a1.45,1.45,0,0,1,2.42,0l16.38,25.38a1.44,1.44,0,0,0,1.21.65h11.11a1.44,1.44,0,0,0,1.21-2.22L550.78,75.28a1.44,1.44,0,0,1,0-1.56l20.86-32.53A1.43,1.43,0,0,0,570.42,39H559.35a1.44,1.44,0,0,0-1.21.66l-14.7,23.09a1.44,1.44,0,0,1-2.42,0L526.07,39.63a1.42,1.42,0,0,0-1.2-.65H513.61a1.44,1.44,0,0,0-1.21,2.22l21,32.42a1.42,1.42,0,0,1,0,1.56L511.16,109.8m92.46.17a1.43,1.43,0,0,0,1.3,2H615.7a1.44,1.44,0,0,0,1.31-.83l5.73-12.36A1.42,1.42,0,0,1,624,98h29.59a1.45,1.45,0,0,1,1.31.84l5.63,12.34a1.42,1.42,0,0,0,1.31.84h11a1.43,1.43,0,0,0,1.3-2L640.24,39.8a1.44,1.44,0,0,0-2.6,0l-34,70.17m27-23.44a1.44,1.44,0,0,1-1.31-2l8.19-17a1.44,1.44,0,0,1,2.62,0l8,17a1.44,1.44,0,0,1-1.31,2H630.65m73.75,24.06a1.43,1.43,0,0,0,1.44,1.43h10.33a1.44,1.44,0,0,0,1.44-1.43v-23a1.44,1.44,0,0,1,1.44-1.44h10.74a1.45,1.45,0,0,1,1.24.7l14.67,24.51a1.44,1.44,0,0,0,1.24.69h11.62a1.44,1.44,0,0,0,1.23-2.18L744.25,84.28a1.42,1.42,0,0,1,.57-2,20.86,20.86,0,0,0,8.24-7.42,22.77,22.77,0,0,0,3.66-12.73,22.38,22.38,0,0,0-3.23-11.79A22.75,22.75,0,0,0,744.81,42a24.26,24.26,0,0,0-11.9-3H705.84a1.43,1.43,0,0,0-1.44,1.44v70.17m13.21-58.25a1.44,1.44,0,0,1,1.44-1.44H732.6a10.35,10.35,0,0,1,7.81,3.23,11.32,11.32,0,0,1,3.1,8.19,11.79,11.79,0,0,1-3.3,8.63,11.59,11.59,0,0,1-8.63,3.35H719.05a1.44,1.44,0,0,1-1.44-1.44Z"/><path class="cls-2" d="M.08,150.23,99.73.58a1.23,1.23,0,0,1,2.08,0l44.37,70.15a1.14,1.14,0,0,1,.09.26.67.67,0,0,1-.32.68.66.66,0,0,1-.79-.07C108.38,38.47,55,82.75.89,150.82a.5.5,0,0,1-.81-.59"/><path class="cls-3" d="M245.4.77,145.74,150.42a1.23,1.23,0,0,1-2.08,0L99.3,80.29a.62.62,0,0,1-.09-.26.67.67,0,0,1,.32-.68.66.66,0,0,1,.79.07C137.09,112.53,190.47,68.25,244.58.18a.51.51,0,0,1,.69-.08.5.5,0,0,1,.13.67"/></svg>