<svg id="No_Clearspace" data-name="No Clearspace" xmlns="http://www.w3.org/2000/svg" viewBox="0 0 581 360"><defs><style>.cls-1{fill:#1d7b3d;}.cls-2{fill:#79b968;}</style></defs><path class="cls-1" d="M.18,355.57,236.05,1.37a2.93,2.93,0,0,1,4.93,0l105,166a2,2,0,0,1,.21.62,1.63,1.63,0,0,1-.75,1.61,1.58,1.58,0,0,1-1.88-.18C256.52,91,130.2,195.86,2.11,357a1.19,1.19,0,0,1-1.63.19,1.18,1.18,0,0,1-.3-1.58"/><path class="cls-2" d="M580.82,4.43,345,358.63a2.93,2.93,0,0,1-4.93,0l-105-166a2,2,0,0,1-.21-.62,1.63,1.63,0,0,1,.75-1.61,1.58,1.58,0,0,1,1.88.18C324.48,269,450.8,164.14,578.89,3a1.19,1.19,0,0,1,1.93,1.39"/></svg>