<svg id="Layer_1" data-name="Layer 1" xmlns="http://www.w3.org/2000/svg" viewBox="0 0 131.94 131.62"><defs><style>.cls-1{fill:#3a6a99;}</style></defs><title>Octopart-Logo</title><path class="cls-1" d="M131.75,54.07H114.42a49.92,49.92,0,0,0-5.87-14.22l12.19-12.37a.19.19,0,0,0,0-.28L104.47,10.94a.19.19,0,0,0-.28,0L91.91,23.22l-.07,0c-.34-.21-1.35-.79-1.35-.79l-.23-.13a49.49,49.49,0,0,0-12.65-5V.2a.2.2,0,0,0-.2-.2H54.53a.2.2,0,0,0-.2.2V17.14a49.33,49.33,0,0,0-14.47,5.92L27.77,11a.18.18,0,0,0-.27,0L11.23,27.23a.19.19,0,0,0,0,.28l12,12.17a49.45,49.45,0,0,0-5.94,14.39H.2a.2.2,0,0,0-.2.2v23a.2.2,0,0,0,.2.2H17.34a49.47,49.47,0,0,0,6,14.29L11.21,104.06a.18.18,0,0,0,0,.27L27.48,120.6a.2.2,0,0,0,.27,0L40,108.33a49.3,49.3,0,0,0,14.31,5.91v17.18a.2.2,0,0,0,.2.2H77.28a.2.2,0,0,0,.19-.2V114.27a49.41,49.41,0,0,0,14.39-5.9l12.28,12.18a.18.18,0,0,0,.27,0l16.27-16.27a.18.18,0,0,0,0-.27L108.55,91.69a49.86,49.86,0,0,0,5.87-14.21h17.33a.2.2,0,0,0,.19-.2v-23A.2.2,0,0,0,131.75,54.07ZM66,89.89A24.08,24.08,0,1,1,90.05,65.81,24.1,24.1,0,0,1,66,89.89Z"/></svg>